<svg aria-hidden="true" style="position: absolute; width: 0; height: 0; overflow: hidden;" version="1.1" xmlns="http://www.w3.org/2000/svg" xmlns:xlink="http://www.w3.org/1999/xlink">
<defs>
<symbol id="icon-Vector-1" viewBox="0 0 18 32">
<path fill="#fafafa" style="fill: var(--color1, #fafafa)" d="M16.47 2.483l-12.296 12.493c-0.27 0.273-0.421 0.641-0.421 1.024s0.151 0.751 0.421 1.024l12.293 12.496c0.27 0.274 0.421 0.644 0.421 1.028s-0.151 0.754-0.421 1.028c-0.132 0.135-0.289 0.242-0.463 0.316s-0.361 0.111-0.549 0.111c-0.189 0-0.375-0.038-0.549-0.111s-0.331-0.181-0.463-0.316l-12.293-12.491c-0.808-0.823-1.26-1.93-1.26-3.083s0.453-2.26 1.26-3.083l12.293-12.491c0.132-0.135 0.289-0.243 0.463-0.317s0.361-0.111 0.55-0.111c0.189 0 0.376 0.038 0.55 0.111s0.332 0.181 0.463 0.317c0.27 0.274 0.421 0.643 0.421 1.028s-0.151 0.754-0.421 1.028z"></path>
</symbol>
<symbol id="icon-Vector-2" viewBox="0 0 53 32">
<path fill="none" stroke="#fafafa" style="stroke: var(--color1, #fafafa)" stroke-linejoin="round" stroke-linecap="round" stroke-miterlimit="4" stroke-width="5.3333" d="M2.667 29.333h48M2.667 16h48M2.667 2.667h48"></path>
</symbol>
<symbol id="icon-Vector" viewBox="0 0 32 32">
<path fill="#fafafa" style="fill: var(--color1, #fafafa)" opacity="0.9" d="M15.029 19.2l-11.2 11.2c-0.419 0.419-0.952 0.629-1.6 0.629s-1.181-0.209-1.6-0.629c-0.419-0.419-0.629-0.952-0.629-1.6s0.21-1.181 0.629-1.6l11.2-11.2-11.2-11.2c-0.419-0.419-0.629-0.952-0.629-1.6s0.21-1.181 0.629-1.6c0.419-0.419 0.952-0.629 1.6-0.629s1.181 0.21 1.6 0.629l11.2 11.2 11.2-11.2c0.419-0.419 0.952-0.629 1.6-0.629s1.181 0.21 1.6 0.629c0.419 0.419 0.629 0.952 0.629 1.6s-0.21 1.181-0.629 1.6l-11.2 11.2 11.2 11.2c0.419 0.419 0.629 0.952 0.629 1.6s-0.21 1.181-0.629 1.6c-0.419 0.419-0.952 0.629-1.6 0.629s-1.181-0.209-1.6-0.629l-11.2-11.2z"></path>
</symbol>
</defs>
</svg>
