<svg aria-hidden="true" style="position: absolute; width: 0; height: 0; overflow: hidden;" version="1.1" xmlns="http://www.w3.org/2000/svg" xmlns:xlink="http://www.w3.org/1999/xlink">
<defs>
<symbol id="icon-facebook" viewBox="0 0 33 32">
<path fill="#fafafa" style="fill: var(--color1, #fafafa)" d="M27.725 0.039h-22.509c-2.588 0-4.706 2.118-4.706 4.706v22.512c0 2.588 2.118 4.706 4.706 4.706h22.512c2.588 0 4.706-2.118 4.706-4.706v-22.512c-0.002-2.588-2.118-4.706-4.708-4.706zM27.422 17.077h-3.788v13.706h-5.668v-13.706h-2.835v-4.725h2.835v-2.835c0-3.854 1.6-6.147 6.153-6.147h3.785v4.724h-2.367c-1.769 0-1.887 0.662-1.887 1.894l-0.015 2.365h4.288l-0.5 4.725z"></path>
</symbol>
<symbol id="icon-instagram" viewBox="0 0 32 32">
<path fill="#fafafa" style="fill: var(--color1, #fafafa)" d="M7.277 0.361c-1.754 0-3.435 0.696-4.675 1.936s-1.937 2.921-1.938 4.675v17.636c0 1.754 0.697 3.436 1.937 4.676s2.922 1.937 4.676 1.937h17.636c1.753-0.001 3.435-0.698 4.675-1.938s1.936-2.922 1.936-4.675v-17.636c-0.001-1.753-0.697-3.434-1.937-4.674s-2.921-1.936-4.674-1.937h-17.636zM26.814 6.982c0 0.505-0.201 0.99-0.558 1.347s-0.842 0.558-1.347 0.558c-0.505 0-0.99-0.201-1.347-0.558s-0.558-0.842-0.558-1.347c0-0.505 0.201-0.99 0.558-1.347s0.842-0.558 1.347-0.558c0.505 0 0.99 0.201 1.347 0.558s0.558 0.842 0.558 1.347zM16.097 10.507c-1.401 0-2.745 0.557-3.735 1.547s-1.547 2.334-1.547 3.735c0 1.401 0.557 2.745 1.547 3.735s2.334 1.547 3.735 1.547c1.401 0 2.745-0.557 3.735-1.547s1.547-2.334 1.547-3.735c0-1.401-0.557-2.745-1.547-3.735s-2.334-1.547-3.735-1.547zM8.272 15.79c0-2.075 0.824-4.064 2.291-5.531s3.457-2.291 5.531-2.291 4.064 0.824 5.531 2.291c1.467 1.467 2.291 3.457 2.291 5.531s-0.824 4.064-2.291 5.531c-1.467 1.467-3.457 2.291-5.531 2.291s-4.064-0.824-5.531-2.291c-1.467-1.467-2.291-3.457-2.291-5.531z"></path>
</symbol>
<symbol id="icon-youtube" viewBox="0 0 31 32">
<path fill="#fafafa" style="fill: var(--color1, #fafafa)" d="M5.754 0.562c-1.489 0-2.917 0.591-3.97 1.644s-1.644 2.481-1.644 3.97v19.649c0 1.489 0.591 2.917 1.644 3.97s2.481 1.644 3.97 1.644h19.649c1.489 0 2.917-0.591 3.97-1.644s1.644-2.481 1.644-3.97v-19.649c0-1.489-0.591-2.917-1.644-3.97s-2.481-1.644-3.97-1.644h-19.649zM5.053 16c0-1.507 0.070-2.929 0.164-4.122 0.060-0.859 0.428-1.666 1.037-2.275s1.417-0.976 2.276-1.035c2.347-0.158 4.698-0.233 7.050-0.225 3.027 0 5.35 0.104 7.050 0.225 0.859 0.059 1.667 0.426 2.276 1.035s0.977 1.416 1.037 2.275c0.093 1.193 0.164 2.615 0.164 4.122 0 1.562-0.076 3.032-0.174 4.25-0.14 1.739-1.465 3.067-3.175 3.186-2.389 0.155-4.783 0.229-7.178 0.22-3.057 0-5.46-0.101-7.178-0.22-1.709-0.119-3.034-1.447-3.175-3.186-0.114-1.414-0.173-2.832-0.174-4.25zM12.963 12.428l5.965 3.572-5.965 3.573v-7.145z"></path>
</symbol>
<symbol id="icon-go_back" viewBox="0 0 18 32">
<path fill="#fafafa" style="fill: var(--color1, #fafafa)" d="M16.47 2.483l-12.296 12.493c-0.27 0.273-0.421 0.641-0.421 1.024s0.151 0.751 0.421 1.024l12.293 12.496c0.27 0.274 0.421 0.644 0.421 1.028s-0.151 0.754-0.421 1.028c-0.132 0.135-0.289 0.242-0.463 0.316s-0.361 0.111-0.549 0.111c-0.189 0-0.375-0.038-0.549-0.111s-0.331-0.181-0.463-0.316l-12.293-12.491c-0.808-0.823-1.26-1.93-1.26-3.083s0.453-2.26 1.26-3.083l12.293-12.491c0.132-0.135 0.289-0.243 0.463-0.317s0.361-0.111 0.55-0.111c0.189 0 0.376 0.038 0.55 0.111s0.332 0.181 0.463 0.317c0.27 0.274 0.421 0.643 0.421 1.028s-0.151 0.754-0.421 1.028z"></path>
</symbol>
<symbol id="icon-burger" viewBox="0 0 53 32">
<path fill="none" stroke="#fafafa" style="stroke: var(--color1, #fafafa)" stroke-linejoin="round" stroke-linecap="round" stroke-miterlimit="4" stroke-width="5.3333" d="M2.667 29.333h48M2.667 16h48M2.667 2.667h48"></path>
</symbol>
<symbol id="icon-cross" viewBox="0 0 32 32">
<path fill="#fafafa" style="fill: var(--color1, #fafafa)" opacity="0.9" d="M15.029 19.2l-11.2 11.2c-0.419 0.419-0.952 0.629-1.6 0.629s-1.181-0.209-1.6-0.629c-0.419-0.419-0.629-0.952-0.629-1.6s0.21-1.181 0.629-1.6l11.2-11.2-11.2-11.2c-0.419-0.419-0.629-0.952-0.629-1.6s0.21-1.181 0.629-1.6c0.419-0.419 0.952-0.629 1.6-0.629s1.181 0.21 1.6 0.629l11.2 11.2 11.2-11.2c0.419-0.419 0.952-0.629 1.6-0.629s1.181 0.21 1.6 0.629c0.419 0.419 0.629 0.952 0.629 1.6s-0.21 1.181-0.629 1.6l-11.2 11.2 11.2 11.2c0.419 0.419 0.629 0.952 0.629 1.6s-0.21 1.181-0.629 1.6c-0.419 0.419-0.952 0.629-1.6 0.629s-1.181-0.209-1.6-0.629l-11.2-11.2z"></path>
</symbol>
</defs>
</svg>
